<svg xmlns="http://www.w3.org/2000/svg" xml:space="preserve" width="2000" height="103" data-id="lg_R4AVlIN5lchF457tXo" data-version="1" viewBox="0 0 2000 103"><g data-padding="20"><g transform="translate(10 1.84)scale(.96429)"><rect width="446.985" height="97.18" x="457.703" y="-427.4" fill="none" rx="0" ry="0" transform="matrix(.92 0 0 .92 474.25 401.18)"/><path d="M943.538 77.064h-33.764V19.499h6.955V70.88h26.81Zm12.752.01h-6.57V33.88h6.57Zm-3.248-50.38q-1.932 0-3.321-1.315-1.39-1.306-1.39-3.165 0-1.85 1.39-3.166t3.32-1.315q1.933 0 3.322 1.315 1.39 1.316 1.39 3.166 0 1.858-1.39 3.165-1.39 1.316-3.321 1.316M971.34 51.11v25.963h-6.568V33.88h6.339v6.798h.616q1.509-3.322 4.6-5.327 3.09-2.014 7.995-2.014 4.37 0 7.654 1.785 3.285 1.775 5.116 5.382 1.84 3.615 1.84 9.145v27.425h-6.57V50.109q0-5.06-2.667-7.94-2.668-2.88-7.26-2.88-3.173 0-5.685 1.39t-3.956 4.02q-1.453 2.63-1.453 6.412m49.845 3.154-7.571 7.038-.157-8.197h1.399l18.85-19.237h8.188l-20.083 20.396ZM1014 77.063h-6.57V19.498h6.57Zm29.284 0h-8.501l-16.836-21.326 4.71-4.637Zm34.003-33.46-5.953 1.628q-.846-2.208-2.916-4.195t-6.43-1.988q-3.948 0-6.57 1.832-2.63 1.84-2.63 4.581 0 2.476 1.802 3.938 1.794 1.471 5.622 2.401l6.412 1.546q5.75 1.39 8.593 4.286t2.843 7.38q0 3.707-2.126 6.642t-5.915 4.637q-3.781 1.702-8.805 1.702-6.605 0-10.92-2.899-4.306-2.898-5.465-8.38l6.265-1.547q.884 3.478 3.414 5.217 2.53 1.73 6.624 1.73 4.6 0 7.36-1.988 2.769-1.987 2.769-4.729 0-4.563-6.422-6.109l-7.185-1.692q-5.943-1.435-8.73-4.37-2.78-2.935-2.78-7.379 0-3.67 2.07-6.486 2.062-2.824 5.659-4.425 3.588-1.61 8.114-1.61 6.45 0 10.102 2.843t5.198 7.433m26.809 34.4q-4.131 0-6.643-1.417-2.511-1.407-3.864-3.2t-2.088-2.955h-.773v6.643h-6.34V19.508h6.57V40.76h.543q.736-1.122 2.042-2.88 1.316-1.756 3.79-3.146 2.475-1.398 6.68-1.398 5.455 0 9.586 2.732 4.13 2.724 6.468 7.72 2.337 5.004 2.337 11.803 0 6.835-2.32 11.877t-6.448 7.792q-4.13 2.742-9.54 2.742m-.856-5.952q4.14 0 6.918-2.218 2.779-2.226 4.196-5.97 1.407-3.745 1.407-8.345 0-4.563-1.39-8.234-1.39-3.67-4.157-5.833-2.76-2.162-6.974-2.162-4.048 0-6.8 2.034-2.74 2.024-4.148 5.676t-1.408 8.52q0 4.866 1.426 8.592t4.196 5.833q2.76 2.107 6.734 2.107m52.78-12.595V33.88h6.56v43.194h-6.56v-7.342h-.47q-1.544 3.285-4.728 5.603-3.192 2.318-8.096 2.282-4.057 0-7.185-1.758-3.128-1.757-4.922-5.39-1.803-3.635-1.803-9.155V33.88h6.569v27.048q0 4.673 2.686 7.49 2.687 2.823 6.817 2.786 2.475 0 5.042-1.26 2.567-1.25 4.333-3.864 1.757-2.604 1.757-6.624m31.29 18.547q-5.41 0-9.54-2.742-4.14-2.75-6.46-7.792-2.308-5.042-2.308-11.877 0-6.799 2.336-11.804 2.337-4.995 6.468-7.719 4.13-2.732 9.577-2.732 4.25 0 6.707 1.398 2.456 1.39 3.763 3.147 1.315 1.757 2.05 2.88h.544V19.508h6.569v57.565h-6.34V70.43h-.772q-.736 1.16-2.088 2.954t-3.846 3.201q-2.493 1.417-6.66 1.417m.846-5.952q4.02 0 6.762-2.107t4.177-5.833q1.426-3.726 1.426-8.593t-1.39-8.519-4.15-5.676q-2.768-2.034-6.825-2.034-4.168 0-6.955 2.162-2.78 2.162-4.168 5.833t-1.39 8.234q0 4.6 1.409 8.345t4.195 5.97q2.778 2.218 6.909 2.218m43.58 5.952q-5.41 0-9.54-2.742-4.13-2.75-6.45-7.792-2.318-5.042-2.318-11.877 0-6.799 2.337-11.804 2.337-4.995 6.468-7.719 4.13-2.732 9.577-2.732 4.25 0 6.707 1.398 2.456 1.39 3.763 3.147 1.315 1.757 2.05 2.88h.544V19.508h6.569v57.565h-6.34v-6.642h-.772q-.736 1.16-2.088 2.954t-3.846 3.2q-2.484 1.418-6.66 1.418m.847-5.953q4.02 0 6.762-2.107t4.177-5.833q1.426-3.726 1.426-8.593t-1.39-8.519-4.15-5.676q-2.768-2.034-6.825-2.034-4.168 0-6.946 2.162-2.788 2.162-4.177 5.833-1.39 3.671-1.39 8.234 0 4.6 1.408 8.345t4.196 5.97q2.778 2.219 6.909 2.219m31.602 21.168q-1.693.037-3.01-.23t-1.857-.543l1.702-5.796.653.156q3.33.773 5.585-.33 2.263-1.096 3.965-5.77l1.233-3.403-15.916-43.423h7.185l11.895 34.463h.47l11.895-34.463h7.185l-18.308 49.45q-1.242 3.367-3.054 5.565t-4.214 3.266q-2.392 1.058-5.41 1.058M868.734 56.436 851.968 61.8a50.16 49.17 0 0 0-.912-10.042l14.562-4.65c7.873-2.531 11.552-12.767 8.208-22.826-2.736-8.24-9.774-14.215-16.75-14.215q-1.87 0-3.588.553l-49.005 15.644c-7.463 2.385-11.217 11.8-8.588 21.457q.107.61.38 1.356c2.767 8.387 9.652 14.23 16.72 14.23q1.84 0 3.618-.552l12.859-4.113c.456 5.305-1.672 10.295-5.274 11.444l-9.272 2.965-.32.014c-12.54.834-23.59-7.987-27.892-20.89l-.06-.238-.26-.834a33.44 32.78 0 0 1-.88-14.87c1.732-9.462 7.645-16.688 15.868-19.31l48.99-15.675a22.4 22.4 0 0 1 6.703-1.029c11.37 0 22.162 8.642 26.296 21.01 5.047 15.242-1.52 31.02-14.653 35.208"/><path d="M845.193 51.092c1.003 4.872 3.252 12.158-.852 20.874-2.356 6.705-6.946 11.905-13.832 14.11l-15.52 4.963-33.484 10.699q-3.253 1.043-6.734 1.043c-11.354 0-22.162-8.657-26.266-21.04a32.528 31.886 0 0 1 .259-21.263c2.69-6.793 7.919-11.845 14.364-13.916l16.416-5.23a39.52 38.74 0 0 0 .897 10.057l-14.212 4.5c-4.925 1.596-7.19 5.782-8.072 8.106a22.8 22.35 0 0 0-.121 14.707c2.78 8.374 9.667 14.245 16.735 14.245q1.87 0 3.618-.567l32.345-10.221 4.773-1.43c1.885-.611 9.698-2.98 9.698-2.98 4.104-1.313 7.72-4.77 9.819-9.016a18.24 17.88 0 0 0 .942-13.559q-.152-.626-.365-1.267c-2.781-8.388-9.667-14.229-16.765-14.229q-1.78 0-3.587.566l-13.544 4.351c-.501-5.364 1.566-10.192 5.168-11.339l10.458-3.367h.046q.744-.06 1.459-.06c11.37 0 22.192 8.642 26.296 21.01Z"/></g><path fill="transparent" stroke="transparent" d="M720 0h560v103H720z"/></g></svg>