<svg xmlns="http://www.w3.org/2000/svg" xml:space="preserve" width="1500" height="1500" data-id="lg_J9aCV591DgjkrCdaNh" data-version="1" viewBox="0 0 1500 1500"><path fill="#fff" stroke="transparent" d="M0 0h1500v1500H0z"/><g data-padding="20"><g transform="translate(-730 -744.96)scale(1.92)"><rect width="100" height="100" x="245.669" y="250.56" fill="#ff851b" rx="21" ry="21" transform="translate(211.17 399.92)scale(1.26)"/><path fill="#fff" d="M616.298 744.429a16.8 16.8 0 0 0-11.875-4.925 16.8 16.8 0 0 0-11.876 4.925l-15.487 15.488a4.2 4.2 0 0 0 5.932 5.943l15.498-15.488a8.337 8.337 0 0 1 11.865 0 8.35 8.35 0 0 1 0 11.865l-15.488 15.509a4.2 4.2 0 0 0 5.943 5.932l15.488-15.487a16.8 16.8 0 0 0 4.925-11.876 16.8 16.8 0 0 0-4.925-11.875m-33.558 45.412-15.498 15.508a8.4 8.4 0 0 1-5.933 2.457 8.4 8.4 0 0 1-5.932-14.333l15.488-15.498a4.2 4.2 0 1 0-5.943-5.932l-15.488 15.477a16.821 16.821 0 0 0 11.865 28.665c4.494 0 8.715-1.743 11.886-4.914l15.488-15.477a4.202 4.202 0 0 0-5.943-5.943"/><path fill="#fff" d="M568.167 792.571a4.2 4.2 0 0 0 5.932 0l23.5-23.499a4.2 4.2 0 0 0-5.944-5.922l-23.488 23.478a4.2 4.2 0 0 0 0 5.943"/><path fill="#ff7c00" d="M689.073 806.665h-28.75q-1.33 0-1.33-.98 0-.8 1.16-1.07l2.04-.35q1.87-.36 2.45-.98.58-.63.58-2.5v-52.33q0-1.87-.58-2.49t-2.45-.98l-2.04-.35q-1.16-.27-1.16-1.07 0-.98 1.33-.98h16.29q1.34 0 1.34 1.07 0 .8-.98.98l-2.41.35q-1.86.27-2.44.98t-.58 2.58v49.84q0 3.21 1.82 4.63 1.83 1.42 4.59 1.42 2.04 0 4.22-.84 2.18-.85 3.96-3.21 1.78-2.35 2.67-6.89l1.16-5.97q.27-1.15 1.34-1.15 1.24 0 1.06 1.51l-1.06 16.73q-.18 2.05-2.23 2.05m15.12-53.85q-1.87 0-3.16-1.33-1.29-1.34-1.29-3.38 0-2.05 1.29-3.34t3.16-1.29 3.12 1.29q1.24 1.29 1.24 3.34 0 2.04-1.24 3.38-1.25 1.33-3.12 1.33m7.39 53.85h-14.86q-1.34 0-1.34-.98 0-.8 1.16-1.07l1.07-.18q2.22-.35 2.84-1.11.63-.76.63-2.62v-29.91q0-1.6-.49-2.18t-1.74-.76l-1.87-.26q-1.15-.09-1.15-.98 0-.71 1.42-.98 2.76-.45 4.45-1.42 1.69-.98 3.29-2.41.8-.8 1.34-.8.8 0 .8 1.07v38.63q0 1.86.53 2.67.54.8 2.05.97l2.22.27q.98.18.98.98 0 1.07-1.33 1.07m20.03 0h-15.04q-1.33 0-1.33-.98 0-.8 1.15-1.07l1.07-.18q1.87-.35 2.45-1.11t.58-2.62v-29.91q0-1.6-.49-2.18t-1.74-.76l-1.87-.26q-1.15-.09-1.15-.98 0-.71 1.42-.98 2.76-.45 4.23-1.42 1.47-.98 3.07-2.41.8-.8 1.33-.8.81 0 .81 1.07v4q0 .81.57 1.03.58.22 1.29-.49 3.56-3.38 6.28-4.63 2.71-1.25 5.74-1.25 4 0 6.41 2.81 2.4 2.8 2.4 8.23v28.93q0 1.86.58 2.62t2.45 1.02l1.95.27q.98.18.98 1.07 0 .98-1.06.98h-14.96q-1.24 0-1.24-.98 0-.89.98-1.07l1.24-.18q1.87-.26 2.45-1.06.58-.81.58-2.67v-27.95q0-4.36-1.6-6.14-1.61-1.78-4.54-1.78-2.85 0-5.12 1.64-2.27 1.65-3.6 4.37-1.34 2.71-1.34 6v23.86q0 1.86.58 2.67.58.8 2.45.97l2.4.27q.98.18.98.98 0 1.07-1.34 1.07m41.57 0h-15.58q-1.07 0-1.07-.98 0-.89.98-1.07l1.25-.18q1.87-.26 2.45-1.06.57-.81.57-2.67v-51q0-1.6-.49-2.18-.48-.58-1.73-.76l-1.87-.27q-.98-.17-.98-1.06t.98-1.07q2.49-.54 4.18-1.25t2.85-1.42q1.43-.89 2.14-.89.98 0 .98 1.42v37.29q0 .89.75 1.12.76.22 1.47-.58l10.41-11.22q1.87-2.04 1.56-3.42t-2.09-1.74l-2.05-.35q-1.15-.27-1.15-1.16t1.24-.89h15.31q1.25 0 1.25.98t-1.16 1.07l-.8.08q-2.05.18-4.1 1.56-2.04 1.38-4.89 4.32l-5.52 5.87q-1.87 2.05-.89 4.01l11.22 21.54q.97 1.78 2.13 2.58t2.85 1.15l.89.18q1.07.27 1.07 1.07 0 .98-1.25.98h-15.48q-1.25 0-1.25-.98 0-.89 1.16-1.07l1.51-.18q3.38-.44 1.42-4.36l-8.45-16.46q-.45-.89-1.29-.98-.85-.09-1.56.62l-.98.98q-.8.8-1.07 1.6-.26.8-.26 1.78v13.09q0 1.86.57 2.67.58.8 2.45.97l2.41.27q.97.18.97 1.07 0 .98-1.06.98m32.21.81q-2.04 0-4.36-.49-2.31-.49-3.73-1.2-.81-.45-.81-1.51l-.26-9.97q0-1.52 1.15-1.52.98 0 1.34 1.43 1.51 6.32 3.69 8.63 2.18 2.32 5.3 2.32 2.58 0 4.27-2.01 1.69-2 1.69-5.56t-1.96-6.32q-1.95-2.76-6.58-6.05-4.63-3.12-6.77-6.28-2.13-3.15-2.13-6.89 0-5.08 3.56-8.19 3.56-3.12 9.43-3.12 1.78 0 3.47.4 1.69.41 3.03 1.3.8.53.8 1.42l.18 9.79q0 1.33-1.07 1.33-.62 0-.89-.4t-.45-1.02q-1.78-5.78-3.56-8.05t-4.36-2.27q-2.31 0-3.82 1.6-1.52 1.6-1.52 4 0 3.12 1.87 5.43 1.87 2.32 6.77 5.7 4.45 3.2 6.72 6.9 2.27 3.69 2.27 8.05 0 5.7-3.65 9.12-3.65 3.43-9.62 3.43m37.21-.81h-18.43q-1.33 0-1.33-.98 0-.8 1.16-1.07l2.04-.35q1.87-.36 2.45-.98.58-.63.58-2.5v-52.33q0-1.87-.58-2.49t-2.45-.98l-2.04-.35q-1.16-.27-1.16-1.07 0-.98 1.33-.98h18.07q4.45 0 7.92 1.87t5.47 5.07q2.01 3.2 2.01 7.3 0 4-2.36 7.43t-6.81 5.74q-.53.27-.53.71 0 .45.62.63 6.05 2.04 9.34 6.54 3.3 4.49 3.3 10.63 0 5.25-2.41 9.39-2.4 4.14-6.63 6.45-4.22 2.32-9.56 2.32m-2.5-36.58q4.72 0 7.88-3.69 3.16-3.7 3.16-9.22 0-5.51-3.03-8.94-3.02-3.43-8.01-3.43-4.71 0-4.71 3.56v16.82q0 2.59 1.11 3.74 1.11 1.16 3.6 1.16m1.34 34.35q5.78 0 9.43-4.4 3.65-4.41 3.65-11.79 0-7.39-3.69-11.66-3.69-4.28-9.92-4.28-5.52 0-5.52 4.37v21.62q0 6.14 6.05 6.14m37.46 3.04q-2.23 0-4.27-.98-2.05-.98-3.39-3.11-1.33-2.14-1.33-5.7v-30.97q0-1.6-.49-2.23-.49-.62-1.74-.71l-1.51-.18q-1.51-.18-1.51-1.15 0-1.16 1.69-1.16h8.28q1.33 0 1.33 1.33v33.2q0 4.09 1.56 5.83t4.32 1.74q2.75 0 4.89-1.56t3.43-4.19q1.29-2.62 1.29-5.74v-25.18q0-1.6-.49-2.23-.49-.62-1.74-.71l-1.51-.18q-1.51-.18-1.51-1.15 0-1.16 1.69-1.16h8.27q1.34 0 1.34 1.33v34.54q0 1.6.49 2.18.49.57 1.73.75l1.87.27q1.16.09 1.16.89t-1.42 1.07q-2.76.35-4.41 1.42t-2.89 2.58q-.8.8-1.34.8-.8 0-.8-1.06v-4.1q0-.71-.49-.84-.49-.14-1.02.4-3.29 3.29-5.83 4.62-2.54 1.34-5.65 1.34m41.3-.01q-3.91 0-6.98-2.72-3.07-2.71-4.76-7.56t-1.69-11.26q0-7.47 2.31-13.13 2.31-5.65 6.41-8.85 4.09-3.21 9.25-3.21 1.25 0 2.5.23 1.24.22 2.4.75 1.42.72 1.42-.62v-11.39q0-1.6-.49-2.23-.49-.62-1.73-.71l-2.32-.27q-.98-.17-.98-1.06t.98-1.07q2.85-.54 4.59-1.25 1.73-.71 2.89-1.42 1.42-.89 2.14-.89.97 0 .97 1.42v55.98q0 3.74 1.87 3.74 1.16 0 2.14-1.56.98-1.55.98-5.29 0-1.43 1.16-1.43 1.06 0 1.06 1.52 0 6.49-2.22 9.39-2.23 2.89-5.07 2.89-2.59 0-3.92-1.74-1.34-1.73-1.78-4.13-.09-.72-.62-.76-.54-.05-.98.67-2.49 3.47-4.54 4.71-2.05 1.25-4.99 1.25m1.96-4.09q2.32 0 4.32-1.56t3.29-4.23 1.29-5.96v-20.03q0-4-1.82-6.32-1.83-2.31-4.76-2.31-4.99 0-8.06 5.83t-3.07 15.89q0 9.16 2.36 13.92 2.36 4.77 6.45 4.77m38.72 4.09q-3.92 0-6.99-2.72-3.07-2.71-4.76-7.56t-1.69-11.26q0-7.47 2.31-13.13 2.32-5.65 6.41-8.85 4.09-3.21 9.26-3.21 1.24 0 2.49.23 1.24.22 2.4.75 1.43.72 1.43-.62v-11.39q0-1.6-.49-2.23-.49-.62-1.74-.71l-2.31-.27q-.98-.17-.98-1.06t.98-1.07q2.84-.54 4.58-1.25t2.89-1.42q1.43-.89 2.14-.89.98 0 .98 1.42v55.98q0 3.74 1.87 3.74 1.15 0 2.13-1.56.98-1.55.98-5.29 0-1.43 1.16-1.43 1.07 0 1.07 1.52 0 6.49-2.23 9.39-2.22 2.89-5.07 2.89-2.58 0-3.92-1.74-1.33-1.73-1.78-4.13-.09-.72-.62-.76-.53-.05-.98.67-2.49 3.47-4.54 4.71-2.05 1.25-4.98 1.25m1.96-4.09q2.31 0 4.31-1.56t3.29-4.23q1.3-2.67 1.3-5.96v-20.03q0-4-1.83-6.32-1.82-2.31-4.76-2.31-4.98 0-8.06 5.83-3.07 5.83-3.07 15.89 0 9.16 2.36 13.92 2.36 4.77 6.46 4.77m29.1 21.54q-2.4 0-3.83-1.64-1.42-1.65-1.42-3.79 0-1.69.98-2.84.98-1.16 2.67-1.16 1.42 0 2.04.62.63.63.89 1.43.27.8.54 1.42.26.62 1.07.62.97 0 1.78-1.38.8-1.38 2.22-5.83.89-2.67 1.11-4.62.23-1.96-.09-4.19-.31-2.22-1.38-5.43l-9.7-30.88q-.62-2.13-1.2-2.76-.58-.62-1.82-.89l-1.34-.26q-1.15-.27-1.15-1.16t1.24-.89h14.69q1.24 0 1.24.89 0 .98-1.15 1.16l-1.43.17q-2.13.27-2.71 1.03-.58.75.04 2.71l7.83 26.08q.27.89.85.89t.84-.89l7.57-24.48q.71-2.4.4-3.6t-2.54-1.56l-1.87-.35q-1.15-.27-1.15-1.16t1.24-.89h11.31q1.24 0 1.24.98 0 .89-1.07 1.24l-.8.27q-1.33.45-2.22 1.6-.89 1.16-1.87 4.01l-13.26 41.38q-1.96 6.23-3.52 9.26-1.55 3.02-2.98 3.96-1.42.93-3.29.93"/></g><path fill="transparent" stroke="transparent" stroke-width="2" d="M250 624h1000v252H250z"/></g></svg>